<?xml version="1.0" encoding="UTF-8"?> <svg xmlns="http://www.w3.org/2000/svg" xmlns:xlink="http://www.w3.org/1999/xlink" version="1.1" id="Capa_1" x="0px" y="0px" viewBox="0 0 64 64" style="enable-background:new 0 0 64 64;" xml:space="preserve"><g><path d="M13.684,55.949c0.528,0.177,1.09-0.109,1.265-0.632L15.72,53h4.559l0.772,2.316C21.191,55.735,21.581,56,22,56 c0.104,0,0.211-0.017,0.316-0.052c0.523-0.175,0.807-0.741,0.632-1.265l-4-12C18.812,42.275,18.431,42,18,42 s-0.813,0.275-0.948,0.684l-4,12C12.877,55.208,13.16,55.774,13.684,55.949z M18,46.162L19.613,51h-3.226L18,46.162z"></path><path d="M60,42h-3c-0.553,0-1,0.448-1,1v12c0,0.552,0.447,1,1,1h3c2.206,0,4-1.794,4-4v-6C64,43.794,62.206,42,60,42z M62,52 c0,1.103-0.898,2-2,2h-2V44h2c1.102,0,2,0.897,2,2V52z"></path><path d="M54,44c0.553,0,1-0.448,1-1s-0.447-1-1-1h-6c-0.553,0-1,0.448-1,1v12c0,0.552,0.447,1,1,1h6c0.553,0,1-0.448,1-1 s-0.447-1-1-1h-5v-4h5c0.553,0,1-0.448,1-1s-0.447-1-1-1h-5v-4H54z"></path><path d="M45,42c-0.553,0-1,0.448-1,1v12c0,0.552,0.447,1,1,1s1-0.448,1-1V43C46,42.448,45.553,42,45,42z"></path><path d="M15,34c-0.553,0-1,0.448-1,1v1c0,2.206,1.794,4,4,4s4-1.794,4-4v-9c0-0.552-0.447-1-1-1h-3c-0.553,0-1,0.448-1,1 s0.447,1,1,1h2v8c0,1.103-0.898,2-2,2c-1.103,0-2-0.897-2-2v-1C16,34.448,15.553,34,15,34z"></path><path d="M1,56c0.553,0,1-0.448,1-1v-7l3.077,7.385C5.232,55.757,5.597,56,6,56s0.768-0.243,0.923-0.615L10,48v7 c0,0.552,0.447,1,1,1c0.553,0,1-0.448,1-1V43c0-0.477-0.337-0.887-0.804-0.98c-0.475-0.093-0.936,0.156-1.119,0.596L6,52.4 l-4.077-9.785C1.74,42.176,1.28,41.927,0.804,42.02C0.337,42.113,0,42.523,0,43v12C0,55.552,0.447,56,1,56z"></path><path d="M32,46c0-2.206-1.794-4-4-4h-3c-0.553,0-1,0.448-1,1v12c0,0.552,0.447,1,1,1s1-0.448,1-1v-5h0.531l4.7,5.64 c0.198,0.237,0.483,0.36,0.77,0.36c0.226,0,0.452-0.076,0.64-0.232c0.424-0.354,0.482-0.984,0.128-1.408l-3.755-4.506 C30.727,49.402,32,47.853,32,46z M28,48h-2v-4h2c1.102,0,2,0.897,2,2S29.102,48,28,48z"></path><path d="M35,42c-0.553,0-1,0.448-1,1v12c0,0.552,0.447,1,1,1s1-0.448,1-1v-5h0.531l4.7,5.64c0.198,0.237,0.483,0.36,0.77,0.36 c0.226,0,0.452-0.076,0.64-0.232c0.424-0.354,0.482-0.984,0.128-1.408l-3.755-4.506C40.727,49.402,42,47.853,42,46 c0-2.206-1.794-4-4-4H35z M40,46c0,1.103-0.898,2-2,2h-2v-4h2C39.102,44,40,44.897,40,46z"></path><path d="M36,38c-1.103,0-2-0.897-2-2c0-0.552-0.447-1-1-1s-1,0.448-1,1c0,2.206,1.794,4,4,4s4-1.794,4-4s-1.794-4-4-4 c-1.103,0-2-0.897-2-2s0.897-2,2-2c1.102,0,2,0.897,2,2c0,0.552,0.447,1,1,1s1-0.448,1-1c0-2.206-1.794-4-4-4s-4,1.794-4,4 s1.794,4,4,4c1.102,0,2,0.897,2,2S37.102,38,36,38z"></path><path d="M49,26h-8c-0.553,0-1,0.448-1,1s0.447,1,1,1h3v11c0,0.552,0.447,1,1,1s1-0.448,1-1V28h3c0.553,0,1-0.448,1-1 S49.553,26,49,26z"></path><path d="M24,26c-0.553,0-1,0.448-1,1v9c0,2.206,1.794,4,4,4s4-1.794,4-4v-9c0-0.552-0.447-1-1-1s-1,0.448-1,1v9 c0,1.103-0.898,2-2,2c-1.103,0-2-0.897-2-2v-9C25,26.448,24.553,26,24,26z"></path><path d="M59,20h-5.697L34.254,7.301C35.307,6.579,36,5.37,36,4c0-2.206-1.794-4-4-4s-4,1.794-4,4c0,1.37,0.693,2.579,1.746,3.301 L10.697,20H5c-2.757,0-5,2.243-5,5v15h2V25c0-1.654,1.346-3,3-3h54c1.654,0,3,1.346,3,3v15h2V25C64,22.243,61.757,20,59,20z M32,2 c1.102,0,2,0.897,2,2s-0.898,2-2,2c-1.103,0-2-0.897-2-2S30.897,2,32,2z M32,8.202L49.697,20H14.303L32,8.202z"></path><path d="M62,59c0,1.654-1.346,3-3,3H5c-1.654,0-3-1.346-3-3v-1H0v1c0,2.757,2.243,5,5,5h54c2.757,0,5-2.243,5-5v-1h-2V59z"></path><rect x="58" y="58" width="2" height="2"></rect><rect x="54" y="58" width="2" height="2"></rect><rect x="50" y="58" width="2" height="2"></rect></g></svg> 